<?xml version="1.0" standalone="no"?>
<!DOCTYPE svg PUBLIC "-//W3C//DTD SVG 20010904//EN"
 "http://www.w3.org/TR/2001/REC-SVG-20010904/DTD/svg10.dtd">
<svg version="1.0" xmlns="http://www.w3.org/2000/svg"
 width="304.000000pt" height="328.000000pt" viewBox="0 0 304.000000 328.000000"
 preserveAspectRatio="xMidYMid meet">

<g transform="translate(0.000000,328.000000) scale(0.100000,-0.100000)"
fill="#000000" stroke="none">
<path d="M0 1685 l0 -1595 633 0 632 0 77 -45 c76 -44 78 -45 169 -45 91 0 93
1 170 45 l78 45 641 0 640 0 0 1595 0 1595 -1520 0 -1520 0 0 -1595z m2478
1262 c45 -23 82 -44 82 -47 0 -3 -105 -61 -233 -129 l-232 -124 -223 113
c-141 72 -218 116 -210 121 7 4 112 64 233 132 l220 125 140 -74 c77 -41 177
-94 223 -117z m128 -164 c-15 -51 -37 -163 -40 -198 -1 -22 -112 -523 -247
-1113 l-244 -1073 -273 -161 c-150 -88 -274 -158 -276 -157 -9 12 -716 1732
-713 1735 16 11 486 274 497 279 16 6 128 -309 326 -919 86 -266 103 -311 119
-308 10 2 21 -2 25 -8 12 -19 47 -2 58 28 6 15 69 358 141 762 72 404 138 773
147 820 l15 85 227 122 c125 67 231 122 235 123 5 0 6 -8 3 -17z m-781 -112
c191 -99 210 -110 207 -133 -2 -27 -249 -1380 -258 -1418 -4 -18 -45 97 -149
421 l-144 446 55 384 c59 409 59 409 71 409 4 0 103 -49 218 -109z m-717 -439
c67 -31 122 -59 122 -62 0 -3 -107 -65 -237 -138 l-237 -132 -36 14 c-69 28
-373 177 -369 180 2 2 102 67 223 144 l218 140 97 -45 c53 -25 151 -70 219
-101z m-462 -400 l62 -31 330 -826 c181 -454 328 -825 326 -825 -3 0 -100 55
-216 122 -186 108 -213 127 -226 158 -31 74 -582 1532 -582 1540 0 8 160 -64
306 -138z"/>
</g>
</svg>
